# Blender v3.5.1 OBJ File: ''
# www.blender.org
mtllib wood.mtl
o Wood.001_Cylinder.006
v -0.591515 -0.980212 2.447619
v -0.564517 -0.858129 2.964912
v -0.866615 -0.801657 2.964912
v -0.945608 -0.972558 2.447619
v -1.127913 -0.639868 2.964912
v -1.251879 -0.724385 2.447619
v -1.313122 -0.394613 2.964912
v -1.468964 -0.436918 2.447619
v -1.397227 -0.099014 2.964912
v -1.567545 -0.090443 2.447619
v -1.368870 0.207006 2.964912
v -1.534307 0.268247 2.447619
v -1.231881 0.482118 2.964912
v -1.373741 0.590709 2.447619
v -1.004760 0.689165 2.964912
v -1.239255 0.850473 2.438780
v -0.718183 0.800186 2.964912
v -0.771629 0.963521 2.447619
v -0.410852 0.800186 2.964912
v -0.307777 0.989143 2.436470
v -0.124274 0.689165 2.964912
v -0.075500 0.833392 2.447619
v 0.102846 0.482118 2.964912
v 0.190710 0.590709 2.447619
v 0.239836 0.207006 2.964912
v 0.351277 0.268247 2.447619
v 0.268192 -0.099014 2.964912
v 0.384515 -0.090443 2.447619
v 0.184087 -0.394613 2.964912
v 0.285934 -0.436918 2.447619
v -0.001121 -0.639868 2.964912
v 0.068849 -0.724385 2.447619
v -0.262420 -0.801657 2.964912
v -0.237423 -0.914020 2.447619
v 0.003603 -0.652813 -3.375110
v 0.009669 -0.659468 -2.316432
v -0.269155 -0.832108 -2.316432
v -0.272408 -0.823712 -3.375110
v 0.082180 -0.739009 -1.257754
v -0.230274 -0.932472 -1.257754
v 0.079747 -0.736340 -0.197164
v -0.231579 -0.929105 -0.197164
v 0.079747 -0.736340 0.857690
v -0.231579 -0.929105 0.857690
v 0.055517 -0.709761 1.918280
v -0.244571 -0.895568 1.918280
v -0.591515 -0.892368 -2.316432
v -0.591515 -0.883363 -3.375110
v -0.591515 -1.000000 -1.257754
v -0.591515 -1.054926 -0.197164
v -0.591515 -0.996389 0.857690
v -0.591515 -0.960423 1.918280
v 0.199239 -0.393749 -3.375110
v 0.207300 -0.397763 -2.316432
v 0.303648 -0.445739 -1.257754
v 0.300415 -0.444129 -0.197164
v 0.466024 -0.407359 0.820971
v 0.268220 -0.428098 1.918280
v 0.288080 -0.081506 -3.375110
v 0.375969 -0.082337 -2.316432
v 0.404219 -0.092268 -1.257754
v 0.400623 -0.091935 -0.197164
v 0.400623 -0.091935 0.857690
v 0.364811 -0.088617 1.918280
v 0.258126 0.241744 -3.375110
v 0.266787 0.244208 -2.316432
v 0.370311 0.273663 -1.257754
v 0.366837 0.272675 -0.197164
v 0.366837 0.272675 0.857690
v 0.332244 0.262832 1.918280
v 0.113424 0.532346 -3.375110
v 0.120610 0.537772 -2.316432
v 0.358719 0.621295 -1.368565
v 0.203620 0.600458 -0.197164
v 0.203620 0.600458 0.857690
v 0.174919 0.578784 1.918280
v -0.126484 0.751051 -3.375110
v -0.099688 0.823870 -2.380682
v -0.065083 0.850217 -1.257754
v -0.066984 0.847147 -0.197164
v -0.048158 0.960104 0.857690
v -0.085918 0.816568 1.918280
v -0.429198 0.868323 -3.375110
v -0.466208 1.072664 -2.429322
v -0.407766 0.982973 -1.257754
v -0.408429 0.979423 -0.197164
v -0.435853 1.174913 0.746228
v -0.207788 0.995312 1.895981
v -0.753833 0.868323 -3.375110
v -0.755487 0.877174 -2.316432
v -0.775265 0.982973 -1.257754
v -0.774601 0.979423 -0.197164
v -0.774601 0.979423 0.857690
v -0.767992 0.944070 1.918280
v -1.056546 0.751051 -3.375110
v -1.061286 0.758707 -2.316432
v -1.117947 0.850217 -1.257754
v -1.116046 0.847147 -0.197164
v -1.116046 0.847146 0.857690
v -1.360564 0.850729 1.900602
v -1.296454 0.532345 -3.375110
v -1.303640 0.537772 -2.316432
v -1.464838 0.602635 -1.257754
v -1.386650 0.600458 -0.197164
v -1.386650 0.600458 0.857690
v -1.357949 0.578784 1.918280
v -1.441157 0.241744 -3.375110
v -1.449817 0.244208 -2.316432
v -1.553341 0.273663 -1.257754
v -1.607268 0.365130 -0.249018
v -1.549867 0.272674 0.857690
v -1.515274 0.262832 1.918280
v -1.471110 -0.081506 -3.375110
v -1.480076 -0.082337 -2.316432
v -1.587249 -0.092268 -1.257754
v -1.583653 -0.091935 -0.197164
v -1.583653 -0.091935 0.857690
v -1.547841 -0.088617 1.918280
v -1.382269 -0.393749 -3.375110
v -1.390330 -0.397763 -2.316432
v -1.584772 -0.445738 -1.257754
v -1.483445 -0.444129 -0.197164
v -1.483445 -0.444129 0.857690
v -1.451250 -0.428097 1.918280
v -1.186633 -0.652813 -3.375110
v -1.192699 -0.659468 -2.316432
v -1.265211 -0.739009 -1.257754
v -1.262778 -0.736340 -0.197164
v -1.262778 -0.736340 0.857690
v -1.238548 -0.709761 1.918280
v -0.910623 -0.823712 -3.375110
v -0.913875 -0.832108 -2.316432
v -0.952757 -0.932472 -1.257754
v -0.989105 -1.023236 -0.197164
v -0.951452 -0.929105 0.857690
v -0.938460 -1.012643 1.918280
v -0.413468 -0.829893 2.964912
v -1.247175 0.185629 2.994071
v -1.136061 0.408776 2.994071
v 0.043649 0.481160 -3.410438
v -0.157022 0.664095 -3.410438
v -0.839789 -0.632510 2.994071
v -0.594754 -0.678315 2.994071
v -0.349718 -0.632510 2.994071
v -0.137776 -0.501281 2.994071
v 0.012449 -0.302352 2.994071
v 0.080668 -0.062587 2.994071
v 0.057667 0.185630 2.994071
v -0.053447 0.408776 2.994071
v -0.237667 0.576715 2.994071
v -0.470114 0.666765 2.994071
v -0.719394 0.666765 2.994071
v -0.951841 0.576715 2.994071
v -1.270175 -0.062587 2.994071
v -1.201956 -0.302351 2.994071
v -1.051731 -0.501281 2.994071
v -0.545995 -0.703006 -3.410438
v -0.812912 -0.653111 -3.410438
v -1.043780 -0.510163 -3.410438
v -1.207420 -0.293469 -3.410438
v -1.281730 -0.032295 -3.410438
v -1.256676 0.238087 -3.410438
v -1.135640 0.481160 -3.410438
v -0.934969 0.664095 -3.410438
v -0.681766 0.762187 -3.410438
v -0.410225 0.762187 -3.410438
v 0.164685 0.238087 -3.410438
v 0.189740 -0.032295 -3.410438
v 0.115429 -0.293470 -3.410438
v -0.048211 -0.510163 -3.410438
v -0.279079 -0.653111 -3.410438
vt 0.072595 0.021638
vt 0.091181 0.041956
vt 0.050864 0.099590
vt 0.018470 0.077337
vt 0.029246 0.172312
vt 0.000000 0.174429
vt 0.029246 0.250300
vt 0.000000 0.265841
vt 0.050864 0.323023
vt 0.025339 0.351080
vt 0.091181 0.380658
vt 0.072595 0.418635
vt 0.144751 0.415421
vt 0.135385 0.459382
vt 0.204340 0.422618
vt 0.186764 0.491425
vt 0.261900 0.401277
vt 0.272696 0.442802
vt 0.309656 0.354279
vt 0.347780 0.377064
vt 0.341160 0.287972
vt 0.365599 0.309997
vt 0.128838 0.531630
vt 0.133404 0.492282
vt 0.191627 0.491425
vt 0.197081 0.530626
vt 0.240947 0.492282
vt 0.254890 0.531630
vt 0.365599 0.130287
vt 0.341160 0.134651
vt 0.309656 0.068343
vt 0.328673 0.052566
vt 0.369121 0.044763
vt 0.389633 0.004199
vt 0.432558 0.001466
vt 0.419434 0.041559
vt 0.487647 0.000000
vt 0.484005 0.039841
vt 0.547461 0.000000
vt 0.554114 0.039841
vt 0.487466 0.505707
vt 0.487197 0.421115
vt 0.551023 0.421116
vt 0.550648 0.505707
vt 0.482801 0.335244
vt 0.554326 0.335244
vt 0.483060 0.250664
vt 0.554326 0.250664
vt 0.483167 0.166495
vt 0.554433 0.166495
vt 0.484779 0.082335
vt 0.553472 0.082335
vt 0.611270 0.422679
vt 0.610287 0.507255
vt 0.621840 0.336997
vt 0.627286 0.251754
vt 0.621703 0.168242
vt 0.618314 0.084018
vt 0.429275 0.507255
vt 0.428412 0.422679
vt 0.416927 0.336997
vt 0.417423 0.252411
vt 0.386010 0.170433
vt 0.421511 0.084018
vt 0.383934 0.510142
vt 0.369293 0.425048
vt 0.365599 0.340266
vt 0.366281 0.255667
vt 0.366387 0.171498
vt 0.372215 0.087157
vt 0.250201 0.997407
vt 0.249867 0.912842
vt 0.299318 0.914506
vt 0.285858 1.000000
vt 0.263125 0.826881
vt 0.303490 0.829817
vt 0.261051 0.742343
vt 0.301270 0.745268
vt 0.259483 0.658210
vt 0.299702 0.661135
vt 0.252950 0.574129
vt 0.291717 0.576948
vt 0.198104 0.996502
vt 0.197240 0.911928
vt 0.228453 0.832681
vt 0.202288 0.741322
vt 0.200720 0.657189
vt 0.196308 0.573145
vt 0.136603 0.997407
vt 0.132800 0.917103
vt 0.134528 0.826882
vt 0.132918 0.742343
vt 0.123875 0.656949
vt 0.129443 0.574129
vt 0.074004 1.000000
vt 0.046982 0.923146
vt 0.063664 0.829817
vt 0.062310 0.745268
vt 0.037760 0.668570
vt 0.091839 0.575749
vt 0.886305 0.467479
vt 0.886720 0.382926
vt 0.954671 0.391702
vt 0.936999 0.470247
vt 0.895582 0.296884
vt 0.952970 0.300018
vt 0.001128 0.834267
vt 0.000000 0.749701
vt 0.894916 0.212370
vt 0.894562 0.128258
vt 0.970237 0.137342
vt 0.952097 0.215492
vt 0.891125 0.044233
vt 0.984574 0.050082
vt 0.825392 0.466512
vt 0.825187 0.381950
vt 0.826627 0.295790
vt 0.826210 0.211280
vt 0.825856 0.127169
vt 0.787739 0.041875
vt 0.762489 0.467479
vt 0.761642 0.382926
vt 0.743659 0.296242
vt 0.755259 0.212370
vt 0.754904 0.128259
vt 0.756508 0.044233
vt 0.706090 0.470247
vt 0.704668 0.385723
vt 0.691572 0.300018
vt 0.693452 0.217864
vt 0.691289 0.131381
vt 0.695189 0.047243
vt 0.798777 0.511593
vt 0.798030 0.596206
vt 0.738718 0.594740
vt 0.740064 0.510142
vt 0.793565 0.681569
vt 0.727100 0.679927
vt 0.793293 0.766239
vt 0.706656 0.760527
vt 0.792886 0.850478
vt 0.726661 0.848841
vt 0.793833 0.934902
vt 0.729998 0.933324
vt 0.861986 0.512137
vt 0.861883 0.596755
vt 0.859710 0.682899
vt 0.864590 0.766852
vt 0.864183 0.851091
vt 0.862556 0.935493
vt 0.921156 0.511700
vt 0.921656 0.596314
vt 0.932102 0.681690
vt 0.931329 0.766359
vt 0.930923 0.850598
vt 0.926887 0.935017
vt 0.968293 0.510340
vt 0.969274 0.594941
vt 0.985464 0.680151
vt 1.000000 0.765459
vt 0.984092 0.849065
vt 1.000000 0.933986
vt 0.659802 0.425596
vt 0.658330 0.510142
vt 0.676226 0.340266
vt 0.691289 0.254873
vt 0.675893 0.171498
vt 0.681928 0.085843
vt 0.620292 0.041559
vt 0.294456 0.534508
vt 0.074604 0.533908
vt 0.892642 0.001726
vt 0.968060 0.006217
vt 0.806471 0.000000
vt 0.336079 0.557831
vt 0.303490 0.555080
vt 0.304039 0.501471
vt 0.336079 0.491425
vt 0.692669 0.004798
vt 0.755252 0.001726
vt 0.792883 0.977324
vt 0.727733 0.975714
vt 0.863023 0.977928
vt 0.928679 0.977442
vt 0.991916 0.976157
vt 0.679292 0.044106
vt 0.575691 0.000733
vt 0.107587 0.357704
vt 0.151038 0.385901
vt 0.603922 0.001466
vt 0.641241 0.554483
vt 0.683823 0.615368
vt 0.669345 0.626692
vt 0.633727 0.575764
vt 0.074885 0.129726
vt 0.107587 0.082978
vt 0.151038 0.054783
vt 0.199371 0.048947
vt 0.246059 0.066259
vt 0.284795 0.104381
vt 0.310348 0.158164
vt 0.319267 0.220345
vt 0.310348 0.282525
vt 0.284795 0.336307
vt 0.246059 0.374428
vt 0.199371 0.391738
vt 0.074885 0.310955
vt 0.057350 0.251969
vt 0.057350 0.188711
vt 0.352157 0.211312
vt 0.144751 0.007195
vt 0.204340 0.000000
vt 0.261900 0.021344
vt 0.117966 0.024576
vt 0.533756 0.912069
vt 0.482905 0.893204
vt 0.440714 0.851672
vt 0.412882 0.793083
vt 0.403167 0.725350
vt 0.412882 0.657620
vt 0.440714 0.599040
vt 0.482905 0.557523
vt 0.533756 0.538675
vt 0.586400 0.545042
vt 0.688444 0.690947
vt 0.688444 0.759852
vt 0.669345 0.824100
vt 0.633727 0.875015
vt 0.586400 0.905721
vt 0.641241 0.912247
vt 0.584660 0.948956
vt 0.377213 0.814294
vt 0.365599 0.733317
vt 0.521722 0.510142
vt 0.584660 0.517754
vt 0.706656 0.774566
vt 0.683823 0.851377
vt 0.460928 0.933992
vt 0.410487 0.884339
vt 0.410487 0.582310
vt 0.460928 0.532675
vt 0.706656 0.692187
vt 0.521722 0.956546
vt 0.377213 0.652344
vn -0.0934 -0.9554 0.2801
vn -0.5585 -0.7732 0.3004
vn -0.7665 -0.5788 0.2783
vn -0.9181 -0.2612 0.2980
vn -0.9458 0.0876 0.3128
vn -0.8478 0.4221 0.3211
vn -0.7190 0.5646 0.4054
vn -0.2702 0.8957 0.3532
vn -0.0269 0.9477 0.3180
vn 0.4260 0.8423 0.3302
vn 0.6505 0.7135 0.2603
vn 0.8693 0.4329 0.2385
vn 0.9714 0.0900 0.2199
vn 0.9410 -0.2677 0.2072
vn 0.7815 -0.5902 0.2021
vn 0.5152 -0.8320 0.2056
vn 0.5264 -0.8502 -0.0084
vn 0.5238 -0.8460 -0.0994
vn 0.5264 -0.8502 0.0033
vn 0.5264 -0.8502 0.0017
vn 0.5264 -0.8502 0.0000
vn 0.5261 -0.8497 0.0333
vn 0.1837 -0.9829 -0.0084
vn 0.1828 -0.9781 -0.0994
vn 0.2589 -0.9656 -0.0233
vn 0.2590 -0.9655 0.0268
vn 0.1836 -0.9824 0.0333
vn 0.7980 -0.6026 -0.0084
vn 0.7941 -0.5996 -0.0994
vn 0.7980 -0.6026 0.0033
vn 0.7132 -0.6995 -0.0446
vn 0.7141 -0.6960 0.0754
vn 0.9243 -0.3792 -0.0428
vn 0.9257 -0.3726 -0.0647
vn 0.9618 -0.2737 0.0033
vn 0.9958 -0.0476 -0.0787
vn 0.9928 -0.0533 0.1071
vn 0.9769 0.2092 -0.0447
vn 0.9774 0.2020 -0.0627
vn 0.9957 0.0923 0.0033
vn 0.9957 0.0923 0.0017
vn 0.9957 0.0923 -0.0000
vn 0.9952 0.0922 0.0333
vn 0.8951 0.4457 -0.0084
vn 0.9626 0.2065 -0.1755
vn 0.9628 0.2608 0.0710
vn 0.8952 0.4457 -0.0000
vn 0.8947 0.4455 0.0333
vn 0.7409 0.6706 -0.0378
vn 0.6144 0.7795 -0.1223
vn 0.5697 0.8204 0.0489
vn 0.7569 0.6521 -0.0417
vn 0.7568 0.6494 0.0743
vn 0.4831 0.8671 -0.1213
vn 0.4735 0.8808 0.0051
vn 0.3612 0.9325 0.0033
vn 0.4426 0.8865 -0.1349
vn 0.5992 0.7979 0.0651
vn -0.3194 0.9416 -0.1063
vn -0.2856 0.9583 -0.0020
vn 0.0000 1.0000 0.0033
vn -0.2802 0.9550 -0.0973
vn -0.2462 0.9618 0.1197
vn -0.3612 0.9324 -0.0084
vn -0.3595 0.9279 -0.0994
vn -0.3612 0.9325 0.0033
vn -0.3612 0.9325 0.0017
vn -0.3612 0.9325 0.0000
vn -0.2346 0.9720 -0.0118
vn -0.6737 0.7390 -0.0084
vn -0.6178 0.7770 -0.1209
vn -0.6247 0.7804 0.0255
vn -0.6737 0.7390 0.0000
vn -0.8862 0.4550 -0.0870
vn -0.8951 0.4457 -0.0084
vn -0.9276 0.3497 -0.1315
vn -0.8766 0.4811 -0.0105
vn -0.8274 0.5597 0.0459
vn -0.8947 0.4455 0.0333
vn -0.9957 0.0923 -0.0084
vn -0.9908 0.0918 -0.0994
vn -0.9996 0.0109 -0.0248
vn -0.9995 0.0141 0.0271
vn -0.9952 0.0922 0.0333
vn -0.9618 -0.2737 -0.0084
vn -0.9804 -0.1352 -0.1434
vn -0.9884 -0.1438 0.0490
vn -0.9618 -0.2737 0.0000
vn -0.9613 -0.2735 0.0333
vn -0.7980 -0.6026 -0.0084
vn -0.7252 -0.6758 -0.1321
vn -0.7344 -0.6777 0.0373
vn -0.7980 -0.6026 0.0000
vn -0.7976 -0.6023 0.0333
vn -0.5264 -0.8502 -0.0084
vn -0.5238 -0.8460 -0.0994
vn -0.6333 -0.7727 -0.0422
vn -0.6334 -0.7725 0.0458
vn -0.6297 -0.7768 -0.0098
vn -0.1837 -0.9829 -0.0084
vn -0.1828 -0.9781 -0.0994
vn -0.1293 -0.9891 -0.0702
vn -0.1292 -0.9889 0.0739
vn -0.0213 -0.9995 -0.0223
vn 0.5261 -0.8496 -0.0367
vn 0.1836 -0.9823 -0.0367
vn 0.7975 -0.6022 -0.0367
vn 0.9612 -0.2735 -0.0367
vn 0.9951 0.0922 -0.0367
vn 0.8946 0.4454 -0.0367
vn 0.6732 0.7385 -0.0367
vn 0.6833 0.7284 0.0500
vn -0.0755 0.9970 -0.0197
vn -0.1912 0.9816 0.0034
vn -0.9653 0.2440 0.0927
vn -0.8946 0.4454 -0.0367
vn -0.9951 0.0922 -0.0367
vn -0.9612 -0.2735 -0.0367
vn -0.7975 -0.6022 -0.0367
vn -0.6725 -0.7400 0.0048
vn 0.0634 -0.9978 0.0196
vn 0.1794 -0.9595 0.2171
vn -0.2139 0.1065 0.9710
vn 0.2590 0.2841 -0.9232
vn 0.0000 0.0000 1.0000
vn 0.1212 0.1329 0.9837
vn 0.0800 -0.1291 0.9884
vn -0.2072 -0.0590 0.9765
vn 0.0000 0.2135 0.9769
vn 0.1457 -0.0414 0.9885
vn -0.0956 -0.1544 0.9834
vn -0.1606 0.1762 0.9712
vn 0.1491 0.0743 0.9860
vn 0.0290 -0.1552 0.9874
vn -0.2294 0.0213 0.9731
vn 0.0708 0.1828 0.9806
vn 0.1195 -0.0902 0.9887
vn -0.1581 -0.1194 0.9802
vn -0.0827 0.2135 0.9734
vn -0.0309 -0.1650 0.9858
vn 0.1564 0.0145 0.9876
vn 0.0000 0.0000 -1.0000
vn 0.1218 -0.1967 -0.9729
vn -0.1709 -0.0486 -0.9841
vn 0.0000 0.3158 -0.9488
vn 0.2989 -0.0850 -0.9505
vn -0.0932 -0.1505 -0.9842
vn -0.1583 0.1736 -0.9720
vn 0.3426 0.1706 -0.9239
vn 0.0376 -0.2012 -0.9788
vn -0.1877 0.0174 -0.9821
vn 0.1294 0.3339 -0.9337
vn 0.2134 -0.1611 -0.9636
vn -0.1388 -0.1048 -0.9847
vn -0.0982 0.2536 -0.9623
vn -0.0343 -0.1838 -0.9824
vn 0.3523 0.0326 -0.9353
vn -0.1855 0.0924 -0.9783
usemtl Wood
s 1
f 1/1/1 2/2/1 3/3/1 4/4/1
f 4/4/2 3/3/2 5/5/2 6/6/2
f 6/6/3 5/5/3 7/7/3 8/8/3
f 8/8/4 7/7/4 9/9/4 10/10/4
f 10/10/5 9/9/5 11/11/5 12/12/5
f 12/12/6 11/11/6 13/13/6 14/14/6
f 14/14/7 13/13/7 15/15/7 16/16/7
f 16/16/8 15/15/8 17/17/8 18/18/8
f 18/18/9 17/17/9 19/19/9 20/20/9
f 20/20/10 19/19/10 21/21/10 22/22/10
f 22/23/11 21/24/11 23/25/11 24/26/11
f 24/26/12 23/25/12 25/27/12 26/28/12
f 26/29/13 25/30/13 27/31/13 28/32/13
f 28/33/14 27/34/14 29/35/14 30/36/14
f 30/36/15 29/35/15 31/37/15 32/38/15
f 32/38/16 31/37/16 33/39/16 34/40/16
f 35/41/17 36/42/17 37/43/17 38/44/17
f 36/42/18 39/45/18 40/46/18 37/43/18
f 39/45/19 41/47/20 42/48/20 40/46/19
f 41/47/20 43/49/21 44/50/21 42/48/20
f 43/49/22 45/51/22 46/52/22 44/50/22
f 38/44/23 37/43/23 47/53/23 48/54/23
f 37/43/24 40/46/24 49/55/24 47/53/24
f 40/46/25 42/48/25 50/56/25 49/55/25
f 42/48/26 44/50/26 51/57/26 50/56/26
f 44/50/27 46/52/27 52/58/27 51/57/27
f 53/59/28 54/60/28 36/42/28 35/41/28
f 54/60/29 55/61/29 39/45/29 36/42/29
f 55/61/30 56/62/30 41/47/30 39/45/30
f 56/62/31 57/63/31 43/49/31 41/47/31
f 57/63/32 58/64/32 45/51/32 43/49/32
f 59/65/33 60/66/33 54/60/33 53/59/33
f 60/66/34 61/67/34 55/61/34 54/60/34
f 61/67/35 62/68/35 56/62/35 55/61/35
f 62/68/36 63/69/36 57/63/36 56/62/36
f 63/69/37 64/70/37 58/64/37 57/63/37
f 65/71/38 66/72/38 60/73/38 59/74/38
f 66/72/39 67/75/39 61/76/39 60/73/39
f 67/75/40 68/77/41 62/78/41 61/76/40
f 68/77/41 69/79/42 63/80/42 62/78/41
f 69/79/43 70/81/43 64/82/43 63/80/43
f 71/83/44 72/84/44 66/72/44 65/71/44
f 72/84/45 73/85/45 67/75/45 66/72/45
f 73/85/46 74/86/46 68/77/46 67/75/46
f 74/86/47 75/87/47 69/79/47 68/77/47
f 75/87/48 76/88/48 70/81/48 69/79/48
f 77/89/49 78/90/49 72/84/49 71/83/49
f 78/90/50 79/91/50 73/85/50 72/84/50
f 79/91/51 80/92/51 74/86/51 73/85/51
f 80/92/52 81/93/52 75/87/52 74/86/52
f 81/93/53 82/94/53 76/88/53 75/87/53
f 83/95/54 84/96/54 78/90/54 77/89/54
f 84/96/55 85/97/55 79/91/55 78/90/55
f 85/97/56 86/98/56 80/92/56 79/91/56
f 86/98/57 87/99/57 81/93/57 80/92/57
f 87/99/58 88/100/58 82/94/58 81/93/58
f 89/101/59 90/102/59 84/103/59 83/104/59
f 90/102/60 91/105/60 85/106/60 84/103/60
f 91/107/61 92/108/61 86/98/61 85/97/61
f 92/109/62 93/110/62 87/111/62 86/112/62
f 93/110/63 94/113/63 88/114/63 87/111/63
f 95/115/64 96/116/64 90/102/64 89/101/64
f 96/116/65 97/117/65 91/105/65 90/102/65
f 97/117/66 98/118/67 92/109/67 91/105/66
f 98/118/67 99/119/68 93/110/68 92/109/67
f 99/119/69 100/120/69 94/113/69 93/110/69
f 101/121/70 102/122/70 96/116/70 95/115/70
f 102/122/71 103/123/71 97/117/71 96/116/71
f 103/123/72 104/124/72 98/118/72 97/117/72
f 104/124/73 105/125/73 99/119/73 98/118/73
f 105/125/74 106/126/74 100/120/74 99/119/74
f 107/127/75 108/128/75 102/122/75 101/121/75
f 108/128/76 109/129/76 103/123/76 102/122/76
f 109/129/77 110/130/77 104/124/77 103/123/77
f 110/130/78 111/131/78 105/125/78 104/124/78
f 111/131/79 112/132/79 106/126/79 105/125/79
f 113/133/80 114/134/80 108/135/80 107/136/80
f 114/134/81 115/137/81 109/138/81 108/135/81
f 115/137/82 116/139/82 110/140/82 109/138/82
f 116/139/83 117/141/83 111/142/83 110/140/83
f 117/141/84 118/143/84 112/144/84 111/142/84
f 119/145/85 120/146/85 114/134/85 113/133/85
f 120/146/86 121/147/86 115/137/86 114/134/86
f 121/147/87 122/148/87 116/139/87 115/137/87
f 122/148/88 123/149/88 117/141/88 116/139/88
f 123/149/89 124/150/89 118/143/89 117/141/89
f 125/151/90 126/152/90 120/146/90 119/145/90
f 126/152/91 127/153/91 121/147/91 120/146/91
f 127/153/92 128/154/92 122/148/92 121/147/92
f 128/154/93 129/155/93 123/149/93 122/148/93
f 129/155/94 130/156/94 124/150/94 123/149/94
f 131/157/95 132/158/95 126/152/95 125/151/95
f 132/158/96 133/159/96 127/153/96 126/152/96
f 133/159/97 134/160/97 128/154/97 127/153/97
f 134/160/98 135/161/98 129/155/98 128/154/98
f 135/161/99 136/162/99 130/156/99 129/155/99
f 48/54/100 47/53/100 132/163/100 131/164/100
f 47/53/101 49/55/101 133/165/101 132/163/101
f 49/55/102 50/56/102 134/166/102 133/165/102
f 50/56/103 51/57/103 135/167/103 134/166/103
f 51/57/104 52/58/104 136/168/104 135/167/104
f 45/51/105 32/38/105 34/40/105 46/52/105
f 46/52/106 34/40/106 1/169/106 52/58/106
f 58/64/107 30/36/107 32/38/107 45/51/107
f 64/70/108 28/33/108 30/36/108 58/64/108
f 70/81/109 26/28/109 28/170/109 64/82/109
f 76/88/110 24/26/110 26/28/110 70/81/110
f 82/94/111 22/23/111 24/26/111 76/88/111
f 88/100/112 20/171/112 22/23/112 82/94/112
f 94/113/113 18/172/113 20/173/113 88/114/113
f 100/120/114 16/174/114 18/172/114 94/113/114
f 106/175/115 14/176/115 16/177/115 100/178/115
f 112/132/116 12/179/116 14/180/116 106/126/116
f 118/143/117 10/181/117 12/182/117 112/144/117
f 124/150/118 8/183/118 10/181/118 118/143/118
f 130/156/119 6/184/119 8/183/119 124/150/119
f 136/162/120 4/185/120 6/184/120 130/156/120
f 52/58/121 1/169/121 4/186/121 136/168/121
f 1/169/122 34/40/122 137/187/122
usemtl WoodCut
f 13/13/123 11/11/123 138/188/123 139/189/123
f 2/190/122 1/169/122 137/187/122
f 77/191/124 71/192/124 140/193/124 141/194/124
f 142/195/125 143/196/125 144/197/125 145/198/125 146/199/125 147/200/125 148/201/125 149/202/125 150/203/125 151/204/125 152/205/125 153/206/125 139/189/125 138/188/125 154/207/125 155/208/125 156/209/125
f 23/210/126 21/21/126 150/203/126 149/202/126
f 33/211/127 31/212/127 145/198/127 144/197/127
f 9/9/128 7/7/128 155/208/128 154/207/128
f 19/19/129 17/17/129 152/205/129 151/204/129
f 29/213/130 27/31/130 147/200/130 146/199/130
f 5/5/131 3/3/131 142/195/131 156/209/131
f 15/15/132 13/13/132 139/189/132 153/206/132
f 25/30/133 23/210/133 149/202/133 148/201/133
f 2/2/134 137/214/134 33/211/134 144/197/134 143/196/134
f 11/11/135 9/9/135 154/207/135 138/188/135
f 21/21/136 19/19/136 151/204/136 150/203/136
f 31/212/137 29/213/137 146/199/137 145/198/137
f 7/7/138 5/5/138 156/209/138 155/208/138
f 17/17/139 15/15/139 153/206/139 152/205/139
f 3/3/140 2/2/140 143/196/140 142/195/140
f 27/31/141 25/30/141 148/201/141 147/200/141
f 157/215/142 158/216/142 159/217/142 160/218/142 161/219/142 162/220/142 163/221/142 164/222/142 165/223/142 166/224/142 141/194/142 140/193/142 167/225/142 168/226/142 169/227/142 170/228/142 171/229/142
f 35/230/143 38/231/143 171/229/143 170/228/143
f 119/232/144 113/233/144 161/219/144 160/218/144
f 89/234/145 83/235/145 166/224/145 165/223/145
f 59/236/146 53/237/146 169/227/146 168/226/146
f 131/238/147 125/239/147 159/217/147 158/216/147
f 101/240/148 95/241/148 164/222/148 163/221/148
f 71/192/149 65/242/149 167/225/149 140/193/149
f 38/231/150 48/243/150 157/215/150 171/229/150
f 113/233/151 107/244/151 162/220/151 161/219/151
f 83/235/152 77/191/152 141/194/152 166/224/152
f 53/237/153 35/230/153 170/228/153 169/227/153
f 125/239/154 119/232/154 160/218/154 159/217/154
f 95/241/155 89/234/155 165/223/155 164/222/155
f 48/243/156 131/238/156 158/216/156 157/215/156
f 65/242/157 59/236/157 168/226/157 167/225/157
f 107/244/158 101/240/158 163/221/158 162/220/158
f 137/187/122 34/40/122 33/39/122
