# Blender v3.5.1 OBJ File: ''
# www.blender.org
mtllib Colliderver2.mtl
o hako2
v -0.500000 -0.500000 0.500000
v 0.500000 -0.500000 0.500000
v 0.500000 0.500000 0.500000
v -0.500000 0.500000 0.500000
v 0.500000 0.500000 -0.500000
v -0.500000 0.500000 -0.500000
v 0.500000 -0.500000 -0.500000
v -0.500000 -0.500000 -0.500000
vt 0.379268 0.017072
vt 0.620732 0.017072
vt 0.620732 0.258536
vt 0.379268 0.258536
vt 0.620732 0.500000
vt 0.379268 0.500000
vt 0.620732 0.741464
vt 0.379268 0.741464
vt 0.620732 0.982928
vt 0.379268 0.982928
vt 0.862196 0.017072
vt 0.862196 0.258536
vt 0.137804 0.017072
vt 0.137804 0.258536
vn 0.0000 0.0000 1.0000
vn 0.0000 1.0000 -0.0000
vn 0.0000 -0.0000 -1.0000
vn 0.0000 -1.0000 0.0000
vn 1.0000 0.0000 0.0000
vn -1.0000 0.0000 0.0000
usemtl lambert2SG
s 1
f 1/1/1 2/2/1 3/3/1 4/4/1
f 4/4/2 3/3/2 5/5/2 6/6/2
f 6/6/3 5/5/3 7/7/3 8/8/3
f 8/8/4 7/7/4 2/9/4 1/10/4
f 2/2/5 7/11/5 5/12/5 3/3/5
f 8/13/6 1/1/6 4/4/6 6/14/6
