# Blender v3.5.1 OBJ File: 'HealItem.blend'
# www.blender.org
mtllib HealItem2.mtl
o 円柱
v 0.000000 3.428188 -0.137032
v 0.000000 3.434395 0.079809
v 0.063424 3.426176 -0.136975
v 0.063424 3.432382 0.079867
v 0.126592 3.420146 -0.136802
v 0.126592 3.426353 0.080039
v 0.189251 3.410124 -0.136515
v 0.189251 3.416331 0.080326
v 0.251148 3.396150 -0.136115
v 0.251148 3.402357 0.080726
v 0.312033 3.378280 -0.135604
v 0.312033 3.384486 0.081238
v 0.371662 3.356586 -0.134983
v 0.371662 3.362792 0.081859
v 0.429795 3.331154 -0.134255
v 0.429795 3.337361 0.082587
v 0.486197 3.302089 -0.133423
v 0.486197 3.308296 0.083419
v 0.540641 3.269507 -0.132491
v 0.540641 3.275713 0.084351
v 0.592908 3.233538 -0.131461
v 0.592908 3.239745 0.085381
v 0.642788 3.194328 -0.130339
v 0.642788 3.200535 0.086503
v 0.690079 3.152035 -0.129128
v 0.690079 3.158242 0.087714
v 0.734592 3.106829 -0.127834
v 0.734592 3.113036 0.089008
v 0.776146 3.058892 -0.126462
v 0.776146 3.065099 0.090380
v 0.814576 3.008417 -0.125017
v 0.814576 3.014624 0.091824
v 0.849725 2.955607 -0.123506
v 0.849725 2.961814 0.093336
v 0.881453 2.900675 -0.121933
v 0.881453 2.906882 0.094908
v 0.909632 2.843843 -0.120307
v 0.909632 2.850049 0.096535
v 0.934148 2.785338 -0.118632
v 0.934148 2.791544 0.098210
v 0.954902 2.725396 -0.116916
v 0.954902 2.731603 0.099925
v 0.971812 2.664260 -0.115166
v 0.971812 2.670467 0.101675
v 0.984808 2.602175 -0.113389
v 0.984808 2.608382 0.103452
v 0.993838 2.539390 -0.111592
v 0.993838 2.545597 0.105250
v 0.998867 2.476160 -0.109782
v 0.998867 2.482367 0.107059
v 0.999874 2.412738 -0.107967
v 0.999874 2.418945 0.108875
v 0.996855 2.349380 -0.106153
v 0.996855 2.355587 0.110688
v 0.989821 2.286341 -0.104349
v 0.989821 2.292548 0.112493
v 0.978802 2.223875 -0.102561
v 0.978802 2.230082 0.114281
v 0.963842 2.162233 -0.100797
v 0.963842 2.168440 0.116045
v 0.945001 2.101664 -0.099063
v 0.945001 2.107870 0.117779
v 0.922354 2.042411 -0.097367
v 0.922354 2.048617 0.119475
v 0.895994 1.984713 -0.095715
v 0.895994 1.990920 0.121126
v 0.866025 1.928802 -0.094115
v 0.866025 1.935009 0.122727
v 0.832570 1.874904 -0.092572
v 0.832570 1.881111 0.124269
v 0.795762 1.823236 -0.091093
v 0.795762 1.829443 0.125748
v 0.755750 1.774005 -0.089684
v 0.755750 1.780212 0.127157
v 0.712694 1.727410 -0.088350
v 0.712694 1.733617 0.128491
v 0.666769 1.683638 -0.087098
v 0.666769 1.689845 0.129744
v 0.618159 1.642866 -0.085931
v 0.618159 1.649073 0.130911
v 0.567060 1.605258 -0.084854
v 0.567060 1.611465 0.131988
v 0.513677 1.570965 -0.083873
v 0.513677 1.577172 0.132969
v 0.458227 1.540126 -0.082990
v 0.458227 1.546333 0.133852
v 0.400931 1.512864 -0.082209
v 0.400931 1.519071 0.134632
v 0.342020 1.489290 -0.081535
v 0.342020 1.495497 0.135307
v 0.281733 1.469497 -0.080968
v 0.281733 1.475704 0.135874
v 0.220311 1.453567 -0.080512
v 0.220311 1.459774 0.136330
v 0.158001 1.441563 -0.080169
v 0.158001 1.447770 0.136673
v 0.095056 1.433533 -0.079939
v 0.095056 1.439740 0.136903
v 0.031728 1.429510 -0.079824
v 0.031728 1.435717 0.137018
v -0.031728 1.429510 -0.079824
v -0.031728 1.435717 0.137018
v -0.095056 1.433533 -0.079939
v -0.095056 1.439740 0.136903
v -0.158001 1.441563 -0.080169
v -0.158001 1.447770 0.136673
v -0.220311 1.453567 -0.080512
v -0.220311 1.459774 0.136330
v -0.281733 1.469497 -0.080968
v -0.281733 1.475704 0.135874
v -0.342020 1.489290 -0.081535
v -0.342020 1.495497 0.135307
v -0.400931 1.512864 -0.082209
v -0.400931 1.519071 0.134632
v -0.458227 1.540126 -0.082990
v -0.458227 1.546333 0.133852
v -0.513677 1.570965 -0.083873
v -0.513677 1.577172 0.132969
v -0.567060 1.605258 -0.084854
v -0.567060 1.611465 0.131988
v -0.618159 1.642866 -0.085931
v -0.618159 1.649073 0.130911
v -0.666769 1.683638 -0.087098
v -0.666769 1.689845 0.129744
v -0.712694 1.727410 -0.088350
v -0.712694 1.733617 0.128491
v -0.755750 1.774005 -0.089684
v -0.755750 1.780212 0.127157
v -0.795762 1.823236 -0.091093
v -0.795762 1.829443 0.125748
v -0.832570 1.874904 -0.092572
v -0.832570 1.881111 0.124269
v -0.866025 1.928802 -0.094115
v -0.866025 1.935009 0.122727
v -0.895994 1.984713 -0.095715
v -0.895994 1.990920 0.121126
v -0.922354 2.042411 -0.097367
v -0.922354 2.048617 0.119475
v -0.945001 2.101664 -0.099063
v -0.945001 2.107870 0.117779
v -0.963842 2.162233 -0.100797
v -0.963842 2.168440 0.116045
v -0.978802 2.223875 -0.102561
v -0.978802 2.230082 0.114281
v -0.989821 2.286341 -0.104349
v -0.989821 2.292548 0.112493
v -0.996855 2.349380 -0.106153
v -0.996855 2.355587 0.110688
v -0.999874 2.412738 -0.107967
v -0.999874 2.418945 0.108875
v -0.998867 2.476160 -0.109782
v -0.998867 2.482367 0.107059
v -0.993838 2.539390 -0.111592
v -0.993838 2.545597 0.105250
v -0.984808 2.602175 -0.113389
v -0.984808 2.608382 0.103452
v -0.971812 2.664260 -0.115166
v -0.971812 2.670467 0.101675
v -0.954902 2.725396 -0.116916
v -0.954902 2.731603 0.099925
v -0.934148 2.785338 -0.118632
v -0.934148 2.791544 0.098210
v -0.909632 2.843843 -0.120307
v -0.909632 2.850049 0.096535
v -0.881453 2.900675 -0.121933
v -0.881453 2.906882 0.094908
v -0.849725 2.955607 -0.123506
v -0.849725 2.961814 0.093336
v -0.814576 3.008417 -0.125017
v -0.814576 3.014624 0.091824
v -0.776146 3.058892 -0.126462
v -0.776146 3.065099 0.090380
v -0.734592 3.106829 -0.127834
v -0.734592 3.113036 0.089008
v -0.690079 3.152035 -0.129128
v -0.690079 3.158242 0.087714
v -0.642788 3.194328 -0.130339
v -0.642788 3.200535 0.086503
v -0.592908 3.233538 -0.131461
v -0.592908 3.239745 0.085381
v -0.540641 3.269507 -0.132491
v -0.540641 3.275713 0.084351
v -0.486197 3.302089 -0.133423
v -0.486197 3.308296 0.083419
v -0.429795 3.331154 -0.134255
v -0.429795 3.337361 0.082587
v -0.371662 3.356586 -0.134983
v -0.371662 3.362792 0.081859
v -0.312033 3.378280 -0.135604
v -0.312033 3.384486 0.081238
v -0.251148 3.396150 -0.136115
v -0.251148 3.402357 0.080726
v -0.189251 3.410124 -0.136515
v -0.189251 3.416331 0.080326
v -0.126592 3.420146 -0.136802
v -0.126592 3.426353 0.080039
v -0.063424 3.426176 -0.136975
v -0.063424 3.432382 0.079867
vt 0.825230 0.607307
vt 0.825230 0.740044
vt 0.823201 0.740044
vt 0.823201 0.607307
vt 0.821172 0.740044
vt 0.821172 0.607307
vt 0.819143 0.740044
vt 0.819143 0.607307
vt 0.817114 0.740044
vt 0.817114 0.607307
vt 0.815085 0.740044
vt 0.815085 0.607307
vt 0.813056 0.740044
vt 0.813056 0.607307
vt 0.811027 0.740044
vt 0.811027 0.607307
vt 0.808998 0.740044
vt 0.808998 0.607307
vt 0.806969 0.740044
vt 0.806969 0.607307
vt 0.804940 0.740044
vt 0.804940 0.607307
vt 0.802911 0.740044
vt 0.802911 0.607307
vt 0.800882 0.740044
vt 0.800882 0.607307
vt 0.798853 0.740044
vt 0.798853 0.607307
vt 0.796824 0.740044
vt 0.796824 0.607307
vt 0.794795 0.740044
vt 0.794795 0.607307
vt 0.792766 0.740044
vt 0.792766 0.607307
vt 0.790737 0.740044
vt 0.790737 0.607307
vt 0.788708 0.740044
vt 0.788708 0.607307
vt 0.786679 0.740044
vt 0.786679 0.607307
vt 0.784650 0.740044
vt 0.784650 0.607307
vt 0.782621 0.740044
vt 0.782621 0.607307
vt 0.780591 0.740044
vt 0.780591 0.607307
vt 0.778562 0.740044
vt 0.778562 0.607307
vt 0.776533 0.740044
vt 0.776533 0.607307
vt 0.774504 0.740044
vt 0.774504 0.607307
vt 0.772475 0.740044
vt 0.772475 0.607307
vt 0.770446 0.740044
vt 0.770446 0.607307
vt 0.768417 0.740044
vt 0.768417 0.607307
vt 0.766388 0.740044
vt 0.766388 0.607307
vt 0.764359 0.740044
vt 0.764359 0.607307
vt 0.762330 0.740044
vt 0.762330 0.607307
vt 0.760301 0.740044
vt 0.760301 0.607307
vt 0.758272 0.740044
vt 0.758272 0.607307
vt 0.756243 0.740044
vt 0.756243 0.607307
vt 0.754214 0.740044
vt 0.754214 0.607307
vt 0.752185 0.740044
vt 0.752185 0.607307
vt 0.750156 0.740044
vt 0.750156 0.607307
vt 0.748127 0.740044
vt 0.748127 0.607307
vt 0.746098 0.740044
vt 0.746098 0.607307
vt 0.744069 0.740044
vt 0.744069 0.607307
vt 0.742040 0.740044
vt 0.742040 0.607307
vt 0.740011 0.740044
vt 0.740011 0.607307
vt 0.737982 0.740044
vt 0.737982 0.607307
vt 0.735953 0.740044
vt 0.735953 0.607307
vt 0.733924 0.740044
vt 0.733924 0.607307
vt 0.731895 0.740044
vt 0.731895 0.607307
vt 0.729866 0.740044
vt 0.729866 0.607307
vt 0.727837 0.740044
vt 0.727837 0.607307
vt 0.725807 0.740044
vt 0.725807 0.607307
vt 0.723778 0.740044
vt 0.723778 0.607307
vt 0.721749 0.740044
vt 0.721749 0.607307
vt 0.719720 0.740044
vt 0.719720 0.607307
vt 0.717691 0.740044
vt 0.717691 0.607307
vt 0.715662 0.740044
vt 0.715662 0.607307
vt 0.713633 0.740044
vt 0.713633 0.607307
vt 0.711604 0.740044
vt 0.711604 0.607307
vt 0.709575 0.740044
vt 0.709575 0.607307
vt 0.707546 0.740044
vt 0.707546 0.607307
vt 0.705517 0.740044
vt 0.705517 0.607307
vt 0.703488 0.740044
vt 0.703488 0.607307
vt 0.701459 0.740044
vt 0.701459 0.607307
vt 0.699430 0.740044
vt 0.699430 0.607307
vt 0.697401 0.740044
vt 0.697401 0.607307
vt 0.695372 0.740044
vt 0.695372 0.607307
vt 0.693343 0.740044
vt 0.693343 0.607307
vt 0.691314 0.740044
vt 0.691314 0.607307
vt 0.689285 0.740044
vt 0.689285 0.607307
vt 0.687256 0.740044
vt 0.687256 0.607307
vt 0.685227 0.740044
vt 0.685227 0.607307
vt 0.683198 0.740044
vt 0.683198 0.607307
vt 0.681169 0.740044
vt 0.681169 0.607307
vt 0.679140 0.740044
vt 0.679140 0.607307
vt 0.677111 0.740044
vt 0.677111 0.607307
vt 0.675082 0.740044
vt 0.675082 0.607307
vt 0.673053 0.740044
vt 0.673053 0.607307
vt 0.671023 0.740044
vt 0.671023 0.607307
vt 0.668994 0.740044
vt 0.668994 0.607307
vt 0.666965 0.740044
vt 0.666965 0.607307
vt 0.664936 0.740044
vt 0.664936 0.607307
vt 0.662907 0.740044
vt 0.662907 0.607307
vt 0.660878 0.740044
vt 0.660878 0.607307
vt 0.658849 0.740044
vt 0.658849 0.607307
vt 0.656820 0.740044
vt 0.656820 0.607307
vt 0.654791 0.740044
vt 0.654791 0.607307
vt 0.652762 0.740044
vt 0.652762 0.607307
vt 0.650733 0.740044
vt 0.650733 0.607307
vt 0.648704 0.740044
vt 0.648704 0.607307
vt 0.646675 0.740044
vt 0.646675 0.607307
vt 0.644646 0.740044
vt 0.644646 0.607307
vt 0.642617 0.740044
vt 0.642617 0.607307
vt 0.640588 0.740044
vt 0.640588 0.607307
vt 0.638559 0.740044
vt 0.638559 0.607307
vt 0.636530 0.740044
vt 0.636530 0.607307
vt 0.634501 0.740044
vt 0.634501 0.607307
vt 0.632472 0.740044
vt 0.632472 0.607307
vt 0.630443 0.740044
vt 0.630443 0.607307
vt 0.628414 0.740044
vt 0.628414 0.607307
vt 0.469279 0.973856
vt 0.500446 0.974807
vt 0.531612 0.973856
vt 0.562654 0.971008
vt 0.593445 0.966272
vt 0.623861 0.959670
vt 0.653780 0.951228
vt 0.683082 0.940978
vt 0.711648 0.928964
vt 0.739364 0.915232
vt 0.766118 0.899838
vt 0.791802 0.882845
vt 0.816314 0.864321
vt 0.839553 0.844339
vt 0.861426 0.822982
vt 0.881847 0.800334
vt 0.900731 0.776488
vt 0.918003 0.751538
vt 0.933595 0.725585
vt 0.947442 0.698735
vt 0.959489 0.671095
vt 0.969688 0.642775
vt 0.977997 0.613892
vt 0.984383 0.584560
vt 0.988821 0.554898
vt 0.991292 0.525025
vt 0.991787 0.495061
vt 0.990303 0.465128
vt 0.986847 0.435345
vt 0.981432 0.405834
vt 0.974081 0.376711
vt 0.964822 0.348095
vt 0.953693 0.320101
vt 0.940740 0.292842
vt 0.926013 0.266428
vt 0.909573 0.240964
vt 0.891485 0.216553
vt 0.871823 0.193294
vt 0.850666 0.171281
vt 0.828098 0.150601
vt 0.804211 0.131338
vt 0.779101 0.113571
vt 0.752869 0.097369
vt 0.725620 0.082799
vt 0.697464 0.069919
vt 0.668516 0.058782
vt 0.638890 0.049431
vt 0.608707 0.041905
vt 0.578088 0.036233
vt 0.547157 0.032440
vt 0.516037 0.030423
vt 0.484855 0.030423
vt 0.453735 0.032440
vt 0.422804 0.036233
vt 0.392185 0.041905
vt 0.362002 0.049431
vt 0.332377 0.058782
vt 0.303428 0.069919
vt 0.275272 0.082799
vt 0.248024 0.097369
vt 0.221791 0.113571
vt 0.196681 0.131338
vt 0.172794 0.150601
vt 0.150226 0.171281
vt 0.129069 0.193294
vt 0.109407 0.216553
vt 0.091319 0.240964
vt 0.074879 0.266428
vt 0.060152 0.292842
vt 0.047199 0.320102
vt 0.036070 0.348095
vt 0.026811 0.376711
vt 0.019460 0.405834
vt 0.014045 0.435345
vt 0.010589 0.465128
vt 0.009105 0.495061
vt 0.009600 0.525025
vt 0.012071 0.554898
vt 0.016509 0.584560
vt 0.022895 0.613892
vt 0.031205 0.642775
vt 0.041403 0.671095
vt 0.053450 0.698735
vt 0.067298 0.725585
vt 0.082889 0.751538
vt 0.100161 0.776488
vt 0.119046 0.800334
vt 0.139466 0.822982
vt 0.161339 0.844340
vt 0.184578 0.864321
vt 0.209089 0.882845
vt 0.234774 0.899838
vt 0.261528 0.915232
vt 0.289244 0.928964
vt 0.317810 0.940978
vt 0.347112 0.951228
vt 0.377031 0.959670
vt 0.407447 0.966272
vt 0.438238 0.971008
vt 0.626385 0.740044
vt 0.626385 0.607307
vt 0.624356 0.740044
vt 0.624356 0.607307
vt 0.502066 0.972915
vt 0.532113 0.971961
vt 0.562040 0.969103
vt 0.591724 0.964353
vt 0.621048 0.957730
vt 0.649893 0.949261
vt 0.678142 0.938979
vt 0.705683 0.926926
vt 0.732403 0.913151
vt 0.758196 0.897708
vt 0.782958 0.880661
vt 0.806588 0.862078
vt 0.828993 0.842033
vt 0.850081 0.820608
vt 0.869767 0.797888
vt 0.887973 0.773966
vt 0.904626 0.748936
vt 0.919657 0.722902
vt 0.933007 0.695966
vt 0.944621 0.668238
vt 0.954453 0.639829
vt 0.962464 0.610854
vt 0.968621 0.581429
vt 0.972899 0.551672
vt 0.975282 0.521704
vt 0.975759 0.491646
vt 0.974329 0.461617
vt 0.970996 0.431740
vt 0.965776 0.402135
vt 0.958689 0.372920
vt 0.949763 0.344213
vt 0.939034 0.316130
vt 0.926545 0.288785
vt 0.912348 0.262286
vt 0.896498 0.236741
vt 0.879060 0.212253
vt 0.860104 0.188921
vt 0.839707 0.166837
vt 0.817950 0.146092
vt 0.794920 0.126768
vt 0.770712 0.108944
vt 0.745422 0.092691
vt 0.719152 0.078074
vt 0.692008 0.065154
vt 0.664099 0.053981
vt 0.635538 0.044600
vt 0.606439 0.037050
vt 0.576920 0.031361
vt 0.547099 0.027555
vt 0.517097 0.025649
vt 0.487035 0.025649
vt 0.457033 0.027555
vt 0.427213 0.031361
vt 0.397694 0.037050
vt 0.368595 0.044600
vt 0.340033 0.053981
vt 0.312124 0.065154
vt 0.284980 0.078074
vt 0.258710 0.092691
vt 0.233420 0.108944
vt 0.209212 0.126768
vt 0.186183 0.146092
vt 0.164425 0.166837
vt 0.144028 0.188921
vt 0.125072 0.212253
vt 0.107634 0.236741
vt 0.091784 0.262286
vt 0.077587 0.288785
vt 0.065099 0.316130
vt 0.054370 0.344213
vt 0.045444 0.372920
vt 0.038356 0.402135
vt 0.033136 0.431740
vt 0.029804 0.461617
vt 0.028373 0.491646
vt 0.028850 0.521704
vt 0.031233 0.551672
vt 0.035511 0.581429
vt 0.041668 0.610854
vt 0.049679 0.639829
vt 0.059511 0.668238
vt 0.071126 0.695966
vt 0.084475 0.722902
vt 0.099507 0.748936
vt 0.116159 0.773966
vt 0.134365 0.797888
vt 0.154052 0.820608
vt 0.175139 0.842033
vt 0.197544 0.862078
vt 0.221175 0.880661
vt 0.245936 0.897708
vt 0.271729 0.913151
vt 0.298450 0.926926
vt 0.325990 0.938979
vt 0.354239 0.949261
vt 0.383084 0.957730
vt 0.412408 0.964353
vt 0.442093 0.969103
vt 0.472019 0.971961
vn 0.0317 0.9991 -0.0286
vn 0.0951 0.9951 -0.0285
vn 0.1580 0.9870 -0.0283
vn 0.2203 0.9750 -0.0279
vn 0.2817 0.9591 -0.0275
vn 0.3420 0.9393 -0.0269
vn 0.4009 0.9157 -0.0262
vn 0.4582 0.8885 -0.0254
vn 0.5137 0.8576 -0.0245
vn 0.5671 0.8233 -0.0236
vn 0.6182 0.7857 -0.0225
vn 0.6668 0.7450 -0.0213
vn 0.7127 0.7012 -0.0201
vn 0.7558 0.6546 -0.0187
vn 0.7958 0.6054 -0.0173
vn 0.8326 0.5537 -0.0158
vn 0.8660 0.4998 -0.0143
vn 0.8960 0.4439 -0.0127
vn 0.9224 0.3862 -0.0111
vn 0.9450 0.3269 -0.0094
vn 0.9638 0.2664 -0.0076
vn 0.9788 0.2047 -0.0059
vn 0.9898 0.1423 -0.0041
vn 0.9969 0.0792 -0.0023
vn 0.9999 0.0159 -0.0005
vn 0.9989 -0.0476 0.0014
vn 0.9938 -0.1108 0.0032
vn 0.9848 -0.1736 0.0050
vn 0.9718 -0.2357 0.0067
vn 0.9549 -0.2968 0.0085
vn 0.9341 -0.3567 0.0102
vn 0.9096 -0.4152 0.0119
vn 0.8815 -0.4721 0.0135
vn 0.8497 -0.5270 0.0151
vn 0.8146 -0.5798 0.0166
vn 0.7761 -0.6303 0.0180
vn 0.7346 -0.6782 0.0194
vn 0.6901 -0.7234 0.0207
vn 0.6428 -0.7657 0.0219
vn 0.5929 -0.8049 0.0230
vn 0.5406 -0.8409 0.0241
vn 0.4862 -0.8735 0.0250
vn 0.4298 -0.9026 0.0258
vn 0.3717 -0.9280 0.0266
vn 0.3120 -0.9497 0.0272
vn 0.2511 -0.9676 0.0277
vn 0.1893 -0.9815 0.0281
vn 0.1266 -0.9915 0.0284
vn 0.0634 -0.9976 0.0286
vn 0.0000 -0.9996 0.0286
vn -0.0634 -0.9976 0.0286
vn -0.1266 -0.9915 0.0284
vn -0.1893 -0.9815 0.0281
vn -0.2511 -0.9676 0.0277
vn -0.3120 -0.9497 0.0272
vn -0.3717 -0.9280 0.0266
vn -0.4298 -0.9026 0.0258
vn -0.4862 -0.8735 0.0250
vn -0.5406 -0.8409 0.0241
vn -0.5929 -0.8049 0.0230
vn -0.6428 -0.7657 0.0219
vn -0.6901 -0.7234 0.0207
vn -0.7346 -0.6782 0.0194
vn -0.7761 -0.6303 0.0180
vn -0.8146 -0.5798 0.0166
vn -0.8497 -0.5270 0.0151
vn -0.8815 -0.4721 0.0135
vn -0.9096 -0.4152 0.0119
vn -0.9341 -0.3567 0.0102
vn -0.9549 -0.2968 0.0085
vn -0.9718 -0.2357 0.0067
vn -0.9848 -0.1736 0.0050
vn -0.9938 -0.1108 0.0032
vn -0.9989 -0.0476 0.0014
vn -0.9999 0.0159 -0.0005
vn -0.9969 0.0792 -0.0023
vn -0.9898 0.1423 -0.0041
vn -0.9788 0.2047 -0.0059
vn -0.9638 0.2664 -0.0076
vn -0.9450 0.3269 -0.0094
vn -0.9224 0.3862 -0.0111
vn -0.8960 0.4439 -0.0127
vn -0.8660 0.4998 -0.0143
vn -0.8326 0.5537 -0.0158
vn -0.7958 0.6054 -0.0173
vn -0.7558 0.6546 -0.0187
vn -0.7127 0.7012 -0.0201
vn -0.6668 0.7450 -0.0213
vn -0.6182 0.7857 -0.0225
vn -0.5671 0.8233 -0.0236
vn -0.5137 0.8576 -0.0245
vn -0.4582 0.8885 -0.0254
vn -0.4009 0.9157 -0.0262
vn -0.3420 0.9393 -0.0269
vn -0.2817 0.9591 -0.0275
vn -0.2203 0.9750 -0.0279
vn -0.1580 0.9870 -0.0283
vn 0.0000 0.0286 0.9996
vn -0.0951 0.9951 -0.0285
vn -0.0317 0.9991 -0.0286
vn -0.0000 -0.0286 -0.9996
usemtl マテリアル
s off
f 1/1/1 2/2/1 4/3/1 3/4/1
f 3/4/2 4/3/2 6/5/2 5/6/2
f 5/6/3 6/5/3 8/7/3 7/8/3
f 7/8/4 8/7/4 10/9/4 9/10/4
f 9/10/5 10/9/5 12/11/5 11/12/5
f 11/12/6 12/11/6 14/13/6 13/14/6
f 13/14/7 14/13/7 16/15/7 15/16/7
f 15/16/8 16/15/8 18/17/8 17/18/8
f 17/18/9 18/17/9 20/19/9 19/20/9
f 19/20/10 20/19/10 22/21/10 21/22/10
f 21/22/11 22/21/11 24/23/11 23/24/11
f 23/24/12 24/23/12 26/25/12 25/26/12
f 25/26/13 26/25/13 28/27/13 27/28/13
f 27/28/14 28/27/14 30/29/14 29/30/14
f 29/30/15 30/29/15 32/31/15 31/32/15
f 31/32/16 32/31/16 34/33/16 33/34/16
f 33/34/17 34/33/17 36/35/17 35/36/17
f 35/36/18 36/35/18 38/37/18 37/38/18
f 37/38/19 38/37/19 40/39/19 39/40/19
f 39/40/20 40/39/20 42/41/20 41/42/20
f 41/42/21 42/41/21 44/43/21 43/44/21
f 43/44/22 44/43/22 46/45/22 45/46/22
f 45/46/23 46/45/23 48/47/23 47/48/23
f 47/48/24 48/47/24 50/49/24 49/50/24
f 49/50/25 50/49/25 52/51/25 51/52/25
f 51/52/26 52/51/26 54/53/26 53/54/26
f 53/54/27 54/53/27 56/55/27 55/56/27
f 55/56/28 56/55/28 58/57/28 57/58/28
f 57/58/29 58/57/29 60/59/29 59/60/29
f 59/60/30 60/59/30 62/61/30 61/62/30
f 61/62/31 62/61/31 64/63/31 63/64/31
f 63/64/32 64/63/32 66/65/32 65/66/32
f 65/66/33 66/65/33 68/67/33 67/68/33
f 67/68/34 68/67/34 70/69/34 69/70/34
f 69/70/35 70/69/35 72/71/35 71/72/35
f 71/72/36 72/71/36 74/73/36 73/74/36
f 73/74/37 74/73/37 76/75/37 75/76/37
f 75/76/38 76/75/38 78/77/38 77/78/38
f 77/78/39 78/77/39 80/79/39 79/80/39
f 79/80/40 80/79/40 82/81/40 81/82/40
f 81/82/41 82/81/41 84/83/41 83/84/41
f 83/84/42 84/83/42 86/85/42 85/86/42
f 85/86/43 86/85/43 88/87/43 87/88/43
f 87/88/44 88/87/44 90/89/44 89/90/44
f 89/90/45 90/89/45 92/91/45 91/92/45
f 91/92/46 92/91/46 94/93/46 93/94/46
f 93/94/47 94/93/47 96/95/47 95/96/47
f 95/96/48 96/95/48 98/97/48 97/98/48
f 97/98/49 98/97/49 100/99/49 99/100/49
f 99/100/50 100/99/50 102/101/50 101/102/50
f 101/102/51 102/101/51 104/103/51 103/104/51
f 103/104/52 104/103/52 106/105/52 105/106/52
f 105/106/53 106/105/53 108/107/53 107/108/53
f 107/108/54 108/107/54 110/109/54 109/110/54
f 109/110/55 110/109/55 112/111/55 111/112/55
f 111/112/56 112/111/56 114/113/56 113/114/56
f 113/114/57 114/113/57 116/115/57 115/116/57
f 115/116/58 116/115/58 118/117/58 117/118/58
f 117/118/59 118/117/59 120/119/59 119/120/59
f 119/120/60 120/119/60 122/121/60 121/122/60
f 121/122/61 122/121/61 124/123/61 123/124/61
f 123/124/62 124/123/62 126/125/62 125/126/62
f 125/126/63 126/125/63 128/127/63 127/128/63
f 127/128/64 128/127/64 130/129/64 129/130/64
f 129/130/65 130/129/65 132/131/65 131/132/65
f 131/132/66 132/131/66 134/133/66 133/134/66
f 133/134/67 134/133/67 136/135/67 135/136/67
f 135/136/68 136/135/68 138/137/68 137/138/68
f 137/138/69 138/137/69 140/139/69 139/140/69
f 139/140/70 140/139/70 142/141/70 141/142/70
f 141/142/71 142/141/71 144/143/71 143/144/71
f 143/144/72 144/143/72 146/145/72 145/146/72
f 145/146/73 146/145/73 148/147/73 147/148/73
f 147/148/74 148/147/74 150/149/74 149/150/74
f 149/150/75 150/149/75 152/151/75 151/152/75
f 151/152/76 152/151/76 154/153/76 153/154/76
f 153/154/77 154/153/77 156/155/77 155/156/77
f 155/156/78 156/155/78 158/157/78 157/158/78
f 157/158/79 158/157/79 160/159/79 159/160/79
f 159/160/80 160/159/80 162/161/80 161/162/80
f 161/162/81 162/161/81 164/163/81 163/164/81
f 163/164/82 164/163/82 166/165/82 165/166/82
f 165/166/83 166/165/83 168/167/83 167/168/83
f 167/168/84 168/167/84 170/169/84 169/170/84
f 169/170/85 170/169/85 172/171/85 171/172/85
f 171/172/86 172/171/86 174/173/86 173/174/86
f 173/174/87 174/173/87 176/175/87 175/176/87
f 175/176/88 176/175/88 178/177/88 177/178/88
f 177/178/89 178/177/89 180/179/89 179/180/89
f 179/180/90 180/179/90 182/181/90 181/182/90
f 181/182/91 182/181/91 184/183/91 183/184/91
f 183/184/92 184/183/92 186/185/92 185/186/92
f 185/186/93 186/185/93 188/187/93 187/188/93
f 187/188/94 188/187/94 190/189/94 189/190/94
f 189/190/95 190/189/95 192/191/95 191/192/95
f 191/192/96 192/191/96 194/193/96 193/194/96
f 193/194/97 194/193/97 196/195/97 195/196/97
f 4/197/98 2/198/98 198/199/98 196/200/98 194/201/98 192/202/98 190/203/98 188/204/98 186/205/98 184/206/98 182/207/98 180/208/98 178/209/98 176/210/98 174/211/98 172/212/98 170/213/98 168/214/98 166/215/98 164/216/98 162/217/98 160/218/98 158/219/98 156/220/98 154/221/98 152/222/98 150/223/98 148/224/98 146/225/98 144/226/98 142/227/98 140/228/98 138/229/98 136/230/98 134/231/98 132/232/98 130/233/98 128/234/98 126/235/98 124/236/98 122/237/98 120/238/98 118/239/98 116/240/98 114/241/98 112/242/98 110/243/98 108/244/98 106/245/98 104/246/98 102/247/98 100/248/98 98/249/98 96/250/98 94/251/98 92/252/98 90/253/98 88/254/98 86/255/98 84/256/98 82/257/98 80/258/98 78/259/98 76/260/98 74/261/98 72/262/98 70/263/98 68/264/98 66/265/98 64/266/98 62/267/98 60/268/98 58/269/98 56/270/98 54/271/98 52/272/98 50/273/98 48/274/98 46/275/98 44/276/98 42/277/98 40/278/98 38/279/98 36/280/98 34/281/98 32/282/98 30/283/98 28/284/98 26/285/98 24/286/98 22/287/98 20/288/98 18/289/98 16/290/98 14/291/98 12/292/98 10/293/98 8/294/98 6/295/98
f 195/196/99 196/195/99 198/296/99 197/297/99
f 197/297/100 198/296/100 2/298/100 1/299/100
f 1/300/101 3/301/101 5/302/101 7/303/101 9/304/101 11/305/101 13/306/101 15/307/101 17/308/101 19/309/101 21/310/101 23/311/101 25/312/101 27/313/101 29/314/101 31/315/101 33/316/101 35/317/101 37/318/101 39/319/101 41/320/101 43/321/101 45/322/101 47/323/101 49/324/101 51/325/101 53/326/101 55/327/101 57/328/101 59/329/101 61/330/101 63/331/101 65/332/101 67/333/101 69/334/101 71/335/101 73/336/101 75/337/101 77/338/101 79/339/101 81/340/101 83/341/101 85/342/101 87/343/101 89/344/101 91/345/101 93/346/101 95/347/101 97/348/101 99/349/101 101/350/101 103/351/101 105/352/101 107/353/101 109/354/101 111/355/101 113/356/101 115/357/101 117/358/101 119/359/101 121/360/101 123/361/101 125/362/101 127/363/101 129/364/101 131/365/101 133/366/101 135/367/101 137/368/101 139/369/101 141/370/101 143/371/101 145/372/101 147/373/101 149/374/101 151/375/101 153/376/101 155/377/101 157/378/101 159/379/101 161/380/101 163/381/101 165/382/101 167/383/101 169/384/101 171/385/101 173/386/101 175/387/101 177/388/101 179/389/101 181/390/101 183/391/101 185/392/101 187/393/101 189/394/101 191/395/101 193/396/101 195/397/101 197/398/101
