# Blender v3.5.1 OBJ File: ''
# www.blender.org
mtllib MetalSword.mtl
o Paladin_J_Nordstrom
v 0.006350 -0.036953 -0.248373
v 0.007560 -0.036295 -0.001394
v -0.007289 -0.032877 -0.248317
v -0.006078 -0.032220 -0.001338
v -0.014051 -0.020350 -0.248317
v -0.012840 -0.019693 -0.001339
v -0.009975 -0.006712 -0.248373
v -0.008764 -0.006054 -0.001395
v 0.002551 0.000050 -0.248452
v 0.003762 0.000707 -0.001474
v 0.016190 -0.004026 -0.248508
v 0.017401 -0.003369 -0.001530
v 0.022952 -0.016552 -0.248508
v 0.024162 -0.015895 -0.001530
v 0.018876 -0.030191 -0.248452
v 0.020086 -0.029534 -0.001474
v 0.074162 -0.025819 0.016985
v 0.030937 -0.015757 -0.259811
v 0.034968 -0.015377 -0.275237
v 0.030786 -0.015840 -0.290620
v 0.019513 -0.017021 -0.301839
v 0.074087 -0.025860 0.001601
v 0.025090 -0.035323 -0.259731
v 0.028216 -0.037969 -0.275144
v 0.024939 -0.035405 -0.290539
v 0.016137 -0.028317 -0.301792
v 0.125202 -0.005494 0.012299
v 0.007120 -0.045023 -0.259617
v 0.007466 -0.049170 -0.275012
v 0.006969 -0.045105 -0.290425
v 0.005762 -0.033917 -0.301726
v 0.071020 0.004017 0.001537
v 0.003509 0.003341 0.001870
v -0.012446 -0.039176 -0.259537
v -0.015127 -0.042418 -0.274920
v -0.012597 -0.039258 -0.290345
v -0.005534 -0.030541 -0.301680
v 0.007921 -0.038871 0.017344
v -0.059590 -0.039547 0.017677
v -0.062732 -0.009711 0.002229
v -0.022146 -0.021205 -0.259537
v -0.026328 -0.021668 -0.274920
v -0.022297 -0.021287 -0.290345
v -0.011134 -0.020166 -0.301680
v -0.113717 -0.030006 0.017916
v -0.062657 -0.009670 0.017612
v -0.113739 -0.030018 0.013536
v -0.016299 -0.001640 -0.259618
v -0.019576 0.000925 -0.275013
v -0.016450 -0.001722 -0.290426
v -0.007758 -0.008870 -0.301727
v 0.003584 0.003382 0.017253
v 0.071095 0.004058 0.016920
v -0.059665 -0.039588 0.002293
v 0.001671 0.008060 -0.259731
v 0.001174 0.012125 -0.275145
v 0.001520 0.007978 -0.290540
v 0.002616 -0.003270 -0.301792
v 0.125223 -0.005482 0.016680
v 0.026663 -0.036528 -0.248473
v 0.007846 -0.038912 0.001961
v 0.021237 0.002213 -0.259812
v 0.023766 0.005373 -0.275237
v 0.021086 0.002131 -0.290620
v 0.013912 -0.006646 -0.301839
v 0.032939 -0.015527 -0.248560
v 0.022527 0.003760 -0.248560
v 0.001526 0.010037 -0.248474
v -0.017761 -0.000375 -0.248352
v -0.024037 -0.021375 -0.248265
v -0.013626 -0.040663 -0.248265
v 0.007375 -0.046940 -0.248351
v 0.004169 -0.018604 -0.305887
v 0.075754 -0.010596 -0.000122
v -0.064416 -0.024983 0.000603
v 0.006651 -0.026490 0.017317
v 0.004855 -0.008998 0.017279
v 0.045306 -0.006516 0.017075
v 0.046763 -0.020704 0.017105
v -0.033801 -0.028973 0.017522
v -0.035257 -0.014785 0.017491
v 0.006713 -0.026456 0.030117
v 0.004918 -0.008964 0.030079
v 0.045369 -0.006482 0.029874
v 0.046826 -0.020670 0.029905
v -0.033738 -0.028939 0.030322
v -0.035195 -0.014751 0.030291
v 0.005472 -0.014364 0.030091
v 0.006159 -0.021057 0.030105
v 0.029362 -0.015293 0.029976
v 0.009284 -0.019359 0.667802
v -0.017731 -0.020127 0.030220
v 0.008597 -0.012667 0.667788
v 0.032488 -0.013596 0.667673
v -0.014606 -0.018430 0.667917
v 0.009309 -0.015814 0.742836
v 0.089911 -0.002822 0.014440
v -0.078429 -0.032680 0.015344
v -0.078465 -0.032699 0.008022
v 0.089875 -0.002841 0.007118
v 0.108163 -0.012283 0.008733
v -0.096737 -0.023249 0.009767
v -0.095714 -0.033208 0.009788
v 0.091153 -0.015290 0.007144
v 0.107141 -0.002323 0.008712
v 0.091848 -0.008931 0.006426
v -0.095675 -0.033187 0.017836
v -0.096697 -0.023227 0.017815
v -0.080444 -0.026614 0.007318
v -0.079707 -0.020231 0.015318
v 0.107181 -0.002302 0.016760
v -0.079742 -0.020250 0.007995
v 0.108203 -0.012261 0.016782
v 0.091189 -0.015271 0.014467
v 0.108719 -0.007195 0.008159
v -0.097298 -0.028340 0.009225
vt 0.373566 0.090058
vt 0.502204 0.090058
vt 0.502204 0.097472
vt 0.373566 0.097472
vt 0.502204 0.104886
vt 0.373566 0.104886
vt 0.502204 0.112300
vt 0.373566 0.112300
vt 0.502204 0.119714
vt 0.373566 0.119714
vt 0.502204 0.127127
vt 0.373566 0.127128
vt 0.502204 0.134541
vt 0.373566 0.134542
vt 0.502204 0.141955
vt 0.373566 0.141956
vt 0.502204 0.149369
vt 0.373566 0.149369
vt 0.905238 0.703213
vt 0.909334 0.708156
vt 0.905886 0.718677
vt 0.898721 0.718962
vt 0.901464 0.700269
vt 0.895374 0.719654
vt 0.642376 0.350458
vt 0.646021 0.359962
vt 0.638066 0.358536
vt 0.637893 0.349648
vt 0.914389 0.712820
vt 0.912505 0.718571
vt 0.920546 0.697088
vt 0.919596 0.703456
vt 0.920748 0.692329
vt 0.663654 0.445577
vt 0.668590 0.445649
vt 0.665986 0.454962
vt 0.920111 0.710444
vt 0.627934 0.394600
vt 0.630024 0.360251
vt 0.632135 0.387708
vt 0.630153 0.394470
vt 0.930207 0.707423
vt 0.925704 0.712745
vt 0.656496 0.392939
vt 0.658360 0.426625
vt 0.650123 0.426992
vt 0.649214 0.393340
vt 0.935430 0.703535
vt 0.939223 0.700401
vt 0.623172 0.340724
vt 0.622227 0.331154
vt 0.625844 0.331270
vt 0.626212 0.340862
vt 0.654078 0.359305
vt 0.646077 0.359999
vt 0.634034 0.428673
vt 0.632918 0.400968
vt 0.934900 0.717780
vt 0.927914 0.718189
vt 0.659600 0.446178
vt 0.661096 0.455869
vt 0.657392 0.456126
vt 0.655561 0.446404
vt 0.941513 0.718389
vt 0.947041 0.718518
vt 0.940434 0.737663
vt 0.935576 0.733283
vt 0.620021 0.395041
vt 0.621995 0.359798
vt 0.638946 0.437861
vt 0.634092 0.428706
vt 0.642208 0.429429
vt 0.643159 0.438242
vt 0.931248 0.728443
vt 0.926090 0.723923
vt 0.626068 0.430090
vt 0.921678 0.747026
vt 0.921087 0.739322
vt 0.653208 0.349813
vt 0.654029 0.359279
vt 0.647689 0.350268
vt 0.920706 0.733334
vt 0.920426 0.726171
vt 0.627549 0.439581
vt 0.633544 0.438540
vt 0.898094 0.696539
vt 0.891279 0.719551
vt 0.887906 0.719776
vt 0.894770 0.696409
vt 0.906096 0.734166
vt 0.909902 0.729006
vt 0.902357 0.738710
vt 0.899489 0.741678
vt 0.897849 0.742798
vt 0.645697 0.399771
vt 0.647269 0.393458
vt 0.914652 0.724208
vt 0.922174 0.749560
vt 0.921791 0.751409
vt 0.943504 0.739547
vt 0.944459 0.740809
vt 0.950057 0.717884
vt 0.952372 0.718464
vt 0.941720 0.698318
vt 0.945255 0.698181
vt 0.921397 0.688319
vt 0.909659 0.685188
vt 0.931293 0.686364
vt 0.920211 0.718318
vt 0.644955 0.387385
vt 0.638552 0.384766
vt 0.638027 0.358554
vt 0.671029 0.391980
vt 0.677546 0.391564
vt 0.674436 0.426860
vt 0.670303 0.412819
vt 0.646752 0.446650
vt 0.645076 0.456389
vt 0.644136 0.447458
vt 0.662322 0.392560
vt 0.660355 0.372488
vt 0.635084 0.341113
vt 0.637597 0.331634
vt 0.637743 0.340544
vt 0.661978 0.339151
vt 0.656704 0.339908
vt 0.658016 0.330297
vt 0.639645 0.403140
vt 0.662940 0.412783
vt 0.667645 0.371451
vt 0.669954 0.357026
vt 0.442951 0.053541
vt 0.464191 0.052913
vt 0.464180 0.059554
vt 0.443150 0.060249
vt 0.436410 0.067750
vt 0.436410 0.060246
vt 0.443144 0.067750
vt 0.961077 0.381807
vt 0.948625 0.381770
vt 0.948624 0.049640
vt 0.961077 0.049640
vt 0.485200 0.060318
vt 0.485425 0.053612
vt 0.485379 0.074514
vt 0.464156 0.075136
vt 0.464166 0.068497
vt 0.485183 0.067811
vt 0.491924 0.060333
vt 0.491908 0.067826
vt 0.442929 0.074454
vt 0.464176 0.062309
vt 0.451903 0.064009
vt 0.476440 0.064048
vt 0.464170 0.065743
vt 0.985980 0.381808
vt 0.973528 0.381770
vt 0.973531 0.049640
vt 0.985983 0.049640
vt 0.936171 0.049640
vt 0.936174 0.381807
vt 0.973527 0.420891
vt 0.948626 0.420890
vt 0.640426 0.341030
vt 0.637767 0.340562
vt 0.671001 0.436240
vt 0.661519 0.436102
vt 0.670983 0.436251
vt 0.622430 0.350263
vt 0.628273 0.350567
vt 0.629992 0.360231
vt 0.658333 0.426644
vt 0.658873 0.436397
vt 0.652946 0.436688
vt 0.650158 0.427009
vt 0.652551 0.436720
vt 0.641398 0.447209
vt 0.644110 0.447442
vt 0.653024 0.330702
vt 0.652644 0.340277
vt 0.648999 0.340551
vt 0.649361 0.330930
vt 0.629709 0.458699
vt 0.629170 0.449066
vt 0.632915 0.448444
vt 0.633364 0.458140
vt 0.647209 0.436999
vt 0.642268 0.429414
vt 0.630054 0.360230
vt 0.633427 0.350596
vt 0.638005 0.358545
vt 0.669920 0.357013
vt 0.656424 0.349465
vt 0.664936 0.348243
vn 0.1023 -0.9926 0.0648
vn 0.0988 -0.9916 -0.0834
vn -0.6108 -0.7806 -0.1323
vn -0.6291 -0.7732 0.0805
vn -0.9627 -0.0979 -0.2522
vn -0.9911 -0.1006 0.0868
vn -0.7553 0.6418 -0.1328
vn -0.7717 0.6309 0.0800
vn -0.1026 0.9912 -0.0841
vn -0.0993 0.9930 0.0640
vn 0.6042 0.7799 -0.1636
vn 0.6320 0.7735 0.0482
vn 0.9505 0.0964 -0.2955
vn 0.9940 0.1010 0.0420
vn 0.7487 -0.6426 -0.1630
vn 0.7746 -0.6305 0.0488
vn 0.7748 -0.6321 -0.0156
vn 0.6879 -0.5703 -0.4489
vn 0.8859 0.0899 -0.4551
vn 0.9946 0.1010 -0.0225
vn 0.7737 -0.6294 0.0718
vn 0.9928 0.1009 0.0650
vn -0.4862 0.6877 -0.5392
vn -0.2525 0.7719 -0.5835
vn -0.1484 -0.0154 -0.9888
vn -0.2955 -0.0304 -0.9549
vn 0.4745 -0.4032 -0.7825
vn 0.6141 0.0613 -0.7869
vn 0.1011 -0.9949 0.0004
vn 0.0813 -0.8970 -0.4345
vn 0.1026 -0.9908 0.0877
vn -0.0157 0.6429 0.7658
vn 0.1138 -0.6323 0.7663
vn 0.8997 0.0915 0.4267
vn 0.0469 -0.6335 -0.7724
vn 0.0945 -0.9750 -0.2009
vn -0.0921 -0.8073 -0.5829
vn -0.5787 -0.6989 -0.4203
vn -0.4183 -0.4938 -0.7623
vn -0.0780 0.8744 0.4790
vn 0.0777 0.8082 0.5837
vn 0.0659 0.8042 -0.5907
vn -0.1010 0.9742 -0.2017
vn -0.6319 -0.7749 0.0162
vn -0.6275 -0.7717 0.1035
vn 0.0499 -0.6388 0.7677
vn -0.8798 -0.0893 0.4669
vn -0.9803 -0.0996 -0.1708
vn -0.1138 -0.8756 -0.4695
vn -0.2124 0.7788 0.5903
vn 0.2262 -0.7750 -0.5901
vn -0.9053 -0.0921 -0.4146
vn -0.6485 -0.0662 -0.7583
vn 0.9717 0.0986 -0.2148
vn 0.0926 0.8731 -0.4787
vn -0.9946 -0.1010 0.0225
vn -0.9889 -0.1004 0.1097
vn -0.7698 0.6299 0.1029
vn -0.7748 0.6321 0.0156
vn 0.0994 -0.8718 0.4796
vn -0.0515 -0.8051 0.5909
vn 0.4617 -0.6906 -0.5567
vn 0.1041 0.0102 -0.9945
vn 0.2526 0.0253 -0.9673
vn -0.7073 0.5680 -0.4208
vn -0.5090 0.3991 -0.7627
vn 0.2386 -0.7756 0.5843
vn -0.0987 0.9913 0.0870
vn -0.1010 0.9949 -0.0004
vn -0.2269 0.4432 0.8672
vn -0.1007 0.8947 -0.4352
vn -0.0814 0.6294 -0.7728
vn 0.2654 -0.4386 0.8586
vn 0.7225 -0.5813 0.3743
vn 0.9250 0.0941 0.3680
vn 0.6319 0.7749 -0.0162
vn 0.5592 0.6966 -0.4494
vn 0.6314 0.7722 0.0713
vn 0.5908 0.7150 0.3738
vn 0.3838 0.4898 -0.7828
vn -0.0844 0.9176 0.3884
vn -0.7051 0.5834 0.4031
vn -0.9077 -0.0921 0.4094
vn -0.5735 -0.7129 0.4036
vn 0.1018 -0.9156 0.3891
vn -0.0223 -0.0026 -0.9997
vn 0.0821 -0.6386 0.7652
vn 0.1584 -0.2635 0.9516
vn 0.1351 0.0134 -0.9907
vn -0.0480 0.6426 0.7647
vn -0.1158 0.2686 0.9563
vn -0.1792 -0.0186 -0.9836
vn -0.0796 0.6364 0.7673
vn 0.1021 0.2907 0.9513
vn -0.0595 -0.2857 0.9565
vn -0.0846 0.9188 0.3854
vn 0.2663 0.9296 0.2549
vn 0.4477 -0.8569 0.2556
vn 0.9948 0.1010 -0.0081
vn 0.1011 -0.9949 0.0028
vn 0.1014 -0.9947 0.0165
vn 0.9819 0.0998 0.1607
vn -0.4360 0.8582 0.2708
vn 0.1019 -0.9168 0.3861
vn -0.2546 -0.9282 0.2714
vn -0.1007 0.9948 0.0157
vn -0.9738 -0.0988 0.2049
vn -0.9942 -0.1010 0.0367
vn -0.1010 0.9949 0.0021
vn 0.0224 0.0026 0.9997
vn -0.2874 0.8345 -0.4702
vn 0.1717 0.4837 0.8582
vn -0.1332 -0.4791 0.8676
vn -0.3380 -0.7718 -0.5387
vn 0.3135 0.7689 -0.5573
vn 0.2663 -0.8370 -0.4781
usemtl Paladin_MAT
s 1
f 1/1/1 2/2/2 4/3/3 3/4/4
f 3/4/4 4/3/3 6/5/5 5/6/6
f 5/6/6 6/5/5 8/7/7 7/8/8
f 7/8/8 8/7/7 10/9/9 9/10/10
f 9/10/10 10/9/9 12/11/11 11/12/12
f 11/12/12 12/11/11 14/13/13 13/14/14
f 13/14/14 14/13/13 16/15/15 15/16/16
f 15/16/16 16/15/15 2/17/2 1/18/1
f 24/19/17 25/20/18 20/21/19 19/22/20
f 23/23/21 24/19/17 19/22/20 18/24/22
f 112/25/23 40/26/24 75/27/25 109/28/26
f 25/20/18 26/29/27 21/30/28 20/21/19
f 29/31/29 30/32/30 25/20/18 24/19/17
f 28/33/31 29/31/29 24/19/17 23/23/21
f 111/34/32 113/35/33 59/36/34
f 30/32/30 31/37/35 26/29/27 25/20/18
f 61/38/36 54/39/37 4/40/3 2/41/2
f 36/42/38 37/43/39 31/37/35 30/32/30
f 52/44/40 53/45/41 32/46/42 33/47/43
f 35/48/44 36/42/38 30/32/30 29/31/29
f 34/49/45 35/48/44 29/31/29 28/33/31
f 107/50/46 45/51/47 47/52/48 103/53/49
f 46/54/50 52/44/40 33/47/43 40/55/24
f 22/56/51 61/38/36 2/41/2 16/57/15
f 43/58/52 44/59/53 37/43/39 36/42/38
f 111/60/32 59/61/34 27/62/54 105/63/55
f 42/64/56 43/58/52 36/42/38 35/48/44
f 41/65/57 42/64/56 35/48/44 34/49/45
f 48/66/58 49/67/59 42/64/56 41/65/57
f 38/68/60 39/69/61 54/39/37 61/38/36
f 104/70/62 22/71/51 74/72/63 106/73/64
f 50/74/65 51/75/66 44/59/53 43/58/52
f 17/76/67 38/68/60 61/38/36 22/56/51
f 49/67/59 50/74/65 43/58/52 42/64/56
f 55/77/68 56/78/69 49/67/59 48/66/58
f 110/79/70 46/80/50 40/55/24 112/81/23
f 57/82/71 58/83/72 51/75/66 50/74/65
f 114/84/73 17/76/67 22/56/51 104/85/62
f 56/78/69 57/82/71 50/74/65 49/67/59
f 60/86/74 66/87/75 13/88/14 15/89/16
f 63/90/76 64/91/77 57/82/71 56/78/69
f 62/92/78 63/90/76 56/78/69 55/77/68
f 66/87/75 67/93/79 11/94/12 13/88/14
f 33/47/43 32/46/42 12/95/11 10/96/9
f 64/91/77 65/97/80 58/83/72 57/82/71
f 67/93/79 68/98/81 9/99/10 11/94/12
f 68/98/81 69/100/82 7/101/8 9/99/10
f 69/100/82 70/102/83 5/103/6 7/101/8
f 70/102/83 71/104/84 3/105/4 5/103/6
f 72/106/85 60/86/74 15/89/16 1/107/1
f 71/104/84 72/106/85 1/108/1 3/105/4
f 26/29/27 73/109/86 21/30/28
f 40/55/24 33/47/43 10/96/9 8/110/7
f 66/87/75 18/24/22 62/92/78 67/93/79
f 31/37/35 73/109/86 26/29/27
f 18/24/22 66/87/75 60/86/74 23/23/21
f 37/43/39 73/109/86 31/37/35
f 44/59/53 73/109/86 37/43/39
f 23/23/21 60/86/74 72/106/85 28/33/31
f 51/75/66 73/109/86 44/59/53
f 71/104/84 34/49/45 28/33/31 72/106/85
f 58/83/72 73/109/86 51/75/66
f 70/102/83 41/65/57 34/49/45 71/104/84
f 41/65/57 70/102/83 69/100/82 48/66/58
f 65/97/80 73/109/86 58/83/72
f 20/21/19 21/30/28 65/97/80 64/91/77
f 48/66/58 69/100/82 68/98/81 55/77/68
f 19/22/20 20/21/19 64/91/77 63/90/76
f 18/24/22 19/22/20 63/90/76 62/92/78
f 21/30/28 73/109/86 65/97/80
f 55/77/68 68/98/81 67/93/79 62/92/78
f 40/55/24 8/110/7 6/111/5 75/112/25
f 76/113/87 38/114/60 17/115/67 79/116/88
f 105/117/55 27/118/54 115/119/89
f 4/40/3 54/39/37 75/112/25 6/111/5
f 77/120/90 52/44/40 46/54/50 81/121/91
f 103/122/49 47/123/48 116/124/92
f 107/125/46 108/126/93 45/127/47
f 12/95/11 32/46/42 74/72/63 14/128/13
f 22/56/51 16/57/15 14/128/13 74/72/63
f 52/44/40 77/120/90 78/129/94 53/45/41
f 78/129/94 79/116/88 17/115/67 53/45/41
f 38/114/60 76/113/87 80/130/95 39/131/61
f 80/130/95 81/121/91 46/54/50 39/131/61
f 78/132/94 77/133/90 83/134/96 84/135/97
f 79/136/88 78/137/94 84/135/97 85/138/98
f 94/139/99 91/140/100 89/141/101 90/142/102
f 87/143/103 83/134/96 77/133/90 81/144/91
f 80/145/95 76/146/87 82/147/104 86/148/105
f 81/149/91 80/150/95 86/148/105 87/143/103
f 85/138/98 82/147/104 76/146/87 79/151/88
f 83/134/96 88/152/106 90/153/102 84/135/97
f 92/154/107 87/143/103 86/148/105
f 82/147/104 89/155/101 92/154/107 86/148/105
f 95/156/108 93/157/109 88/158/106 92/159/107
f 88/152/106 83/134/96 87/143/103 92/154/107
f 90/142/102 88/158/106 93/157/109 94/139/99
f 89/155/101 82/147/104 85/138/98 90/153/102
f 90/153/102 85/138/98 84/135/97
f 92/160/107 89/141/101 91/140/100 95/161/108
f 96/162/110 93/157/109 95/156/108
f 94/139/99 93/157/109 96/162/110
f 96/163/110 91/140/100 94/139/99
f 95/161/108 91/140/100 96/163/110
f 47/123/48 102/164/111 116/124/92
f 102/164/111 112/25/23 109/28/26 116/165/92
f 53/45/41 17/115/67 114/166/73 97/167/112
f 97/167/112 114/168/73 113/35/33 111/34/32
f 39/69/61 98/169/113 99/170/114 54/171/37
f 98/169/113 107/50/46 103/53/49 99/170/114
f 53/172/41 97/173/112 100/174/115 32/175/42
f 97/173/112 111/60/32 105/63/55 100/176/115
f 27/118/54 101/177/116 115/119/89
f 101/177/116 104/70/62 106/73/64 115/178/89
f 45/179/47 108/180/93 102/181/111 47/182/48
f 108/180/93 110/79/70 112/81/23 102/181/111
f 59/183/34 113/184/33 101/185/116 27/186/54
f 113/184/33 114/84/73 104/85/62 101/185/116
f 32/46/42 100/187/115 106/73/64 74/188/63
f 100/187/115 105/117/55 115/119/89 106/73/64
f 54/189/37 99/190/114 109/28/26 75/191/25
f 99/190/114 103/122/49 116/124/92 109/28/26
f 39/192/61 46/54/50 110/193/70 98/194/113
f 98/194/113 110/193/70 108/126/93 107/125/46
